<svg width="41" height="40" viewBox="0 0 41 40" fill="none" xmlns="http://www.w3.org/2000/svg">
<g clip-path="url(#clip0_4497_106419)">
<path d="M36.0603 0H4.93966C2.48771 0 0.5 1.98771 0.5 4.43966V35.5603C0.5 38.0123 2.48771 40 4.93966 40H36.0603C38.5123 40 40.5 38.0123 40.5 35.5603V4.43966C40.5 1.98771 38.5123 0 36.0603 0Z" fill="#1A1A1A"/>
<path d="M24.0665 10.5226C22.9566 10.101 21.7607 9.86865 20.5045 9.86865C16.9338 9.86865 13.802 11.7185 11.9951 14.5148H18.4309C21.0379 14.5148 23.2405 12.8542 24.0665 10.5312V10.5226Z" fill="white"/>
<path d="M29.9342 23.678C30.3816 22.5336 30.6312 21.3033 30.6312 20.0041C30.6312 16.4506 28.7985 13.336 26.0366 11.5205V18.0768C26.0366 20.6494 27.6628 22.8348 29.9342 23.678Z" fill="white"/>
<path d="M22.4659 25.4849C19.8761 25.4849 17.6735 27.1369 16.8389 29.4342C17.9746 29.873 19.205 30.1225 20.487 30.1225C24.0576 30.1225 27.1895 28.2726 28.9963 25.4763H22.4573L22.4659 25.4849Z" fill="white"/>
<path d="M11.0656 16.3303C10.6268 17.4661 10.3687 18.705 10.3687 19.9956C10.3687 23.5921 12.2443 26.7326 15.0664 28.5394V21.9745C15.0664 19.3675 13.3973 17.1563 11.0656 16.3303Z" fill="white"/>
</g>
<defs>
<clipPath id="clip0_4497_106419">
<rect width="40" height="40" fill="white" transform="translate(0.5)"/>
</clipPath>
</defs>
</svg>
