<svg width="124" height="17" viewBox="0 0 124 17" fill="none" xmlns="http://www.w3.org/2000/svg">
<path d="M0.202681 0.00769557C1.63349 0.00769557 2.87657 -0.0196448 4.11782 0.0295678C4.40398 0.040504 4.73024 0.257404 4.95261 0.468836C6.15923 1.60802 7.33851 2.77636 8.69277 4.09416V0.0204544C10.1582 0.0204544 11.5143 0.00405019 12.8685 0.0386813C13.069 0.0441494 13.2878 0.257404 13.4555 0.419623C14.6147 1.53511 15.7794 2.64695 16.9003 3.80071C17.1209 4.02673 17.2539 4.43319 17.2576 4.75762C17.2867 7.15811 17.2922 9.55859 17.2539 11.9572C17.2485 12.2999 17.0589 12.7173 16.8165 12.9688C15.7211 14.1044 14.5837 15.2035 13.439 16.2898C13.2386 16.4812 12.9323 16.6598 12.6699 16.6689C11.3976 16.7072 10.1236 16.6871 8.75474 16.6871V12.5624C7.9728 13.3097 7.29294 13.8109 6.80628 14.4562C5.39917 16.3171 3.61111 17.1009 1.30176 16.6962C0.980969 16.6397 0.641949 16.6889 0.200858 16.6889C0.200858 15.3201 0.191745 14.0224 0.211794 12.7246C0.213617 12.5678 0.339382 12.3856 0.454212 12.2598C1.69911 10.8964 2.95494 9.54036 4.34383 8.03664C5.88036 9.73903 7.17811 11.179 8.53419 12.6827C10.0488 11.0368 11.3539 9.61874 12.5951 8.27177C11.4797 7.07791 10.1655 5.66897 8.7037 4.10328C7.3622 5.61976 6.06445 7.0852 4.71201 8.61261C3.11169 7.03781 1.79207 5.75099 0.48702 4.44959C0.348496 4.31106 0.219085 4.08687 0.21544 3.90096C0.191745 2.63237 0.202681 1.36195 0.202681 0.00769557Z" fill="#1A1A1A"/>
<path d="M71.3383 13.6631V3.76043H73.6969C73.7334 4.03383 73.7716 4.31088 73.8117 4.61345C76.1338 2.98214 77.9274 3.08968 79.8175 4.99622C80.7653 3.91718 81.9664 3.42688 83.4155 3.49796C85.2801 3.5891 86.6489 4.5934 86.7784 6.43796C86.946 8.81657 86.8185 11.2152 86.8185 13.6576H84.3287C84.3287 12.7973 84.3287 11.9589 84.3287 11.1223C84.3287 9.93753 84.356 8.75096 84.3122 7.56803C84.2703 6.45619 83.6743 5.79091 82.7174 5.66332C81.6912 5.52662 80.8072 6.08983 80.5083 7.13605C80.3862 7.56621 80.3552 8.03282 80.3497 8.48302C80.3315 10.1818 80.3424 11.8787 80.3424 13.6449H77.8308C77.8162 13.3514 77.7888 13.0325 77.787 12.7135C77.7815 11.0421 77.798 9.37067 77.7797 7.69926C77.7652 6.47988 77.1837 5.77815 76.1411 5.65056C75.0657 5.51933 74.1271 6.17367 73.9448 7.36389C73.7953 8.34632 73.8336 9.35973 73.8154 10.3604C73.7972 11.4449 73.8117 12.5312 73.8117 13.6631H71.3383Z" fill="#1A1A1A"/>
<path d="M98.1941 9.38733H90.6172C90.6299 11.6438 93.4077 12.7137 94.9351 11.4761C95.9759 10.6322 96.9693 10.8291 98.0519 10.8054C97.7293 12.865 95.0573 14.2977 92.3907 13.873C89.3322 13.3881 87.5168 10.8528 87.9907 7.7305C88.4136 4.95819 91.0856 3.11181 94.0584 3.54379C96.8125 3.94296 98.6479 6.48014 98.1923 9.38551L98.1941 9.38733ZM95.5858 7.62843C95.4163 6.15935 94.3719 5.34643 92.9138 5.45032C91.5522 5.54875 90.63 6.41999 90.6354 7.62843H95.5858Z" fill="#1A1A1A"/>
<path d="M118.641 3.5089C121.758 3.50161 123.972 5.60499 124 8.59785C124.027 11.6745 121.767 13.9146 118.637 13.9146C115.442 13.9146 113.248 11.7712 113.251 8.65435C113.255 5.61229 115.45 3.51619 118.641 3.5089ZM121.35 8.75278C121.37 6.89364 120.307 5.62504 118.688 5.57765C117.064 5.52844 115.885 6.78245 115.858 8.59056C115.829 10.4807 116.93 11.7821 118.579 11.8076C120.214 11.8331 121.331 10.601 121.35 8.75278Z" fill="#1A1A1A"/>
<path d="M64.7824 3.50926C67.9028 3.51837 70.09 5.62722 70.0973 8.63466C70.1046 11.7496 67.839 13.9314 64.6129 13.9132C61.5179 13.8968 59.338 11.7041 59.3471 8.61643C59.3562 5.60535 61.5981 3.49832 64.7824 3.50743V3.50926ZM61.9572 8.68752C61.9754 10.5649 63.131 11.8408 64.7824 11.8116C66.3772 11.7824 67.4909 10.4829 67.4909 8.65653C67.4909 6.87941 66.2897 5.55249 64.7022 5.57619C63.0818 5.59806 61.9408 6.89399 61.9572 8.68934V8.68752Z" fill="#1A1A1A"/>
<path d="M36.0475 3.76432C36.0475 5.33366 36.0475 6.87201 36.0475 8.40854C36.0475 8.89519 36.0238 9.38368 36.0712 9.86487C36.1879 11.0405 36.8586 11.7167 37.8994 11.7568C39.0258 11.8006 39.9062 11.1262 40.0192 9.95053C40.1322 8.77672 40.0848 7.5865 40.0975 6.40176C40.1067 5.53051 40.0994 4.65744 40.0994 3.77526H42.5928V13.6652H40.2525C40.2197 13.3881 40.1869 13.122 40.1759 13.0309C39.2482 13.3207 38.315 13.8073 37.3489 13.8748C35.0924 14.0334 33.6908 12.6937 33.4976 10.4354C33.4775 10.1948 33.4867 9.95053 33.4867 9.70629C33.4867 7.7633 33.4867 5.82214 33.4867 3.76432H36.0475Z" fill="#1A1A1A"/>
<path d="M52.1713 6.72808C51.3875 6.72808 50.7824 6.75542 50.1809 6.71167C49.9877 6.69709 49.7525 6.53852 49.6286 6.3763C49.0271 5.58525 48.134 5.21524 47.2482 5.56702C46.911 5.70008 46.541 6.08831 46.4662 6.42186C46.4207 6.62965 46.8508 7.09808 47.1516 7.20015C48.0082 7.49178 48.9159 7.63031 49.789 7.87455C51.5771 8.37396 52.3918 9.29989 52.3499 10.7252C52.3043 12.2763 51.3201 13.5158 49.5958 13.7381C48.4329 13.8894 47.1589 13.8129 46.0343 13.4903C44.5943 13.0765 43.7942 11.9154 43.6356 10.2386C44.3464 10.2386 45.0044 10.2021 45.6551 10.2604C45.852 10.2787 46.0853 10.5266 46.2001 10.7289C46.7743 11.7478 48.0301 12.2326 49.0727 11.6986C49.4154 11.5236 49.7762 11.0606 49.8036 10.7052C49.8236 10.4537 49.3424 10.0199 49.0034 9.90867C47.9426 9.55689 46.8071 9.41654 45.77 9.01555C44.146 8.38672 43.5718 6.87024 44.2644 5.37746C44.3647 5.16056 44.5123 4.96189 44.6545 4.76504C45.9377 2.9788 50.7332 2.79653 51.8669 5.72013C51.9726 5.99171 52.0382 6.27969 52.1713 6.7299V6.72808Z" fill="#1A1A1A"/>
<path d="M32.488 7.32935C31.8154 7.32935 31.2048 7.37674 30.6069 7.30747C30.3408 7.27649 30.0073 7.07235 29.8687 6.84633C29.3183 5.94593 28.5272 5.53217 27.5102 5.59597C26.4822 5.65976 25.7221 6.21022 25.3539 7.16895C24.8272 8.53414 24.9001 9.87017 25.9008 11.0148C26.9014 12.1595 28.8608 12.1139 29.6117 10.8471C30.0401 10.1235 30.534 10.0251 31.223 10.0688C31.6386 10.0944 32.056 10.0743 32.4825 10.0743C32.1854 12.5204 29.9672 14.0824 27.1766 13.9038C24.4098 13.7252 22.4103 11.5252 22.4176 8.66538C22.4249 5.85844 24.5228 3.63476 27.2769 3.51446C30.1166 3.39234 32.2419 4.90517 32.4861 7.33117L32.488 7.32935Z" fill="#1A1A1A"/>
<path d="M54.2728 5.75832C53.6676 5.73098 53.1901 5.7091 52.6451 5.68541V3.74789H55.1896C55.2534 3.70414 55.3172 3.6604 55.381 3.61483C54.3839 2.873 53.9702 1.95072 54.3621 0.722225H56.7881V3.68227H59.0938V5.6927H56.8409C56.8409 7.45524 56.7735 9.14123 56.8701 10.8199C56.9193 11.6784 57.6338 11.9208 59.1302 11.7823V13.7253C56.3105 14.6221 54.2709 13.1767 54.2691 10.3041C54.2691 8.82226 54.2691 7.33859 54.2691 5.76014L54.2728 5.75832Z" fill="#1A1A1A"/>
<path d="M102.016 13.667H99.5208V3.77707H101.925C101.958 4.14161 101.991 4.48975 102.034 4.97276C102.986 3.90102 104.07 3.45264 105.459 3.74973V6.0281C105.109 6.0281 104.759 6.01716 104.409 6.0281C102.772 6.08642 102.031 6.83555 102.02 8.46868C102.009 10.1674 102.018 11.8662 102.018 13.6652L102.016 13.667Z" fill="#1A1A1A"/>
<path d="M111.961 13.6871H109.559V3.77171H111.961V13.6871Z" fill="#1A1A1A"/>
<path d="M107.078 11.1442V13.6687H104.44V11.1442H107.078Z" fill="#1A1A1A"/>
<path d="M109.555 0.0623695H111.964V2.40635H109.555V0.0623695Z" fill="#1A1A1A"/>
</svg>
