<svg width="115" height="115" viewBox="0 0 115 115" fill="none" xmlns="http://www.w3.org/2000/svg">
<g clip-path="url(#clip0_139_3705)">
<path d="M68.1013 64.6223H79.1173V66.4583H70.2997V71.9905H78.7066V73.8506H70.2997V81.5328H68.1013V64.6223Z" fill="#47423D"/>
<path d="M52.8846 64.6223H59.4798C60.5588 64.6223 61.5251 64.7753 62.3787 65.0813C63.2484 65.3712 63.949 65.8785 64.4804 66.6033C65.0119 67.3119 65.2776 68.2541 65.2776 69.4297C65.2776 70.6054 65.02 71.5476 64.5046 72.2562C63.9892 72.9648 63.2967 73.4722 62.427 73.7782C61.5734 74.0681 60.591 74.213 59.4798 74.213H55.083V81.5328H52.8846V64.6223ZM59.4556 72.377C60.6957 72.377 61.5976 72.1193 62.1613 71.6039C62.7411 71.0886 63.031 70.3638 63.031 69.4297C63.031 68.4795 62.7411 67.7467 62.1613 67.2314C61.5976 66.716 60.6957 66.4583 59.4556 66.4583H55.083V72.377H59.4556Z" fill="#47423D"/>
<path d="M35.4268 64.6223H40.4999C42.3842 64.6223 43.9948 64.9122 45.3315 65.492C46.6843 66.0718 47.7312 66.9898 48.472 68.246C49.2129 69.5022 49.5833 71.1047 49.5833 73.0534C49.5833 74.7767 49.2531 76.2745 48.5928 77.5468C47.9486 78.8191 46.9903 79.8015 45.718 80.4941C44.4457 81.1866 42.8835 81.5328 41.0314 81.5328H35.4268V64.6223ZM40.7657 79.6727C42.1507 79.6727 43.3264 79.4472 44.2927 78.9963C45.259 78.5453 45.9999 77.8286 46.5152 76.8462C47.0306 75.8638 47.2883 74.5995 47.2883 73.0534C47.2883 70.8953 46.7488 69.2606 45.6697 68.1494C44.5907 67.022 42.9238 66.4583 40.669 66.4583H37.6251V79.6727H40.7657Z" fill="#47423D"/>
<path d="M85.4658 57.7373C84.113 57.7373 82.9212 57.5038 81.8905 57.0367C80.8597 56.5697 80.0625 55.9013 79.4988 55.0316C78.9351 54.1458 78.6453 53.1151 78.6292 51.9394H80.8758C80.9241 52.7447 81.1416 53.4453 81.5281 54.0411C81.9307 54.637 82.4703 55.096 83.1467 55.4181C83.8231 55.7403 84.6042 55.9013 85.49 55.9013C86.8589 55.9013 87.9138 55.6275 88.6547 55.0799C89.4116 54.5163 89.7901 53.7674 89.7901 52.8333C89.7901 52.0763 89.5002 51.4885 88.9204 51.0697C88.3567 50.6349 87.5273 50.2886 86.4322 50.0309L83.9197 49.4511C82.5186 49.129 81.3831 48.5815 80.5135 47.8084C79.6438 47.0192 79.2089 46.0127 79.2089 44.7887C79.2089 43.8868 79.4747 43.0815 80.0061 42.3729C80.5376 41.6481 81.2704 41.0845 82.2045 40.6818C83.1547 40.2792 84.2177 40.0779 85.3934 40.0779C86.6013 40.0779 87.6642 40.2872 88.5822 40.706C89.5163 41.1247 90.2491 41.7206 90.7806 42.4937C91.312 43.2667 91.61 44.1686 91.6744 45.1994H89.4277C89.3794 44.539 89.1781 43.9673 88.8238 43.4841C88.4856 42.9849 88.0185 42.6064 87.4226 42.3487C86.8267 42.0749 86.1342 41.938 85.345 41.938C84.6203 41.938 83.968 42.0508 83.3883 42.2763C82.8085 42.5017 82.3495 42.8158 82.0113 43.2184C81.6891 43.621 81.5281 44.08 81.5281 44.5954C81.5281 45.3201 81.7697 45.908 82.2528 46.3589C82.736 46.8099 83.4768 47.1481 84.4754 47.3736L87.4709 48.05C88.9043 48.3882 90.0317 48.9438 90.853 49.7169C91.6905 50.4738 92.1093 51.4643 92.1093 52.6883C92.1093 53.6224 91.8355 54.476 91.2879 55.249C90.7564 56.006 89.9914 56.6099 88.9929 57.0609C87.9944 57.5118 86.8187 57.7373 85.4658 57.7373Z" fill="#47423D"/>
<path d="M69.3196 57.7372C67.9829 57.7372 66.8394 57.4796 65.8892 56.9642C64.9551 56.4488 64.2303 55.6758 63.715 54.645C63.2157 53.6143 62.9661 52.3259 62.9661 50.7798V40.4644H65.1644V50.4899C65.1644 51.73 65.3174 52.7527 65.6234 53.5579C65.9455 54.3471 66.4126 54.9349 67.0246 55.3215C67.6366 55.708 68.4016 55.9012 69.3196 55.9012C70.7046 55.9012 71.7434 55.4664 72.436 54.5967C73.1446 53.7109 73.4989 52.342 73.4989 50.4899V40.4644H75.6973V50.7798C75.6973 53.0828 75.1416 54.8222 74.0304 55.9979C72.9191 57.1575 71.3489 57.7372 69.3196 57.7372Z" fill="#47423D"/>
<path d="M53.1648 48.05H59.4459V49.8136H53.1648V48.05Z" fill="#47423D"/>
<path d="M43.2272 57.7372C41.8904 57.7372 40.747 57.4796 39.7968 56.9642C38.8627 56.4488 38.1379 55.6758 37.6226 54.645C37.1233 53.6143 36.8737 52.3259 36.8737 50.7798V40.4644H39.072V50.4899C39.072 51.73 39.225 52.7527 39.531 53.5579C39.8531 54.3471 40.3202 54.9349 40.9322 55.3215C41.5442 55.708 42.3092 55.9012 43.2272 55.9012C44.6122 55.9012 45.651 55.4664 46.3435 54.5967C47.0522 53.7109 47.4065 52.342 47.4065 50.4899V40.4644H49.6049V50.7798C49.6049 53.0828 49.0492 54.8222 47.938 55.9979C46.8267 57.1575 45.2564 57.7372 43.2272 57.7372Z" fill="#47423D"/>
<path d="M22.3215 40.4644H33.3134V42.3004H24.5199V47.8325H32.9268V49.6927H24.5199V55.5147H33.6033V57.3749H22.3215V40.4644Z" fill="#47423D"/>
<path d="M49.9922 108.472L49.1101 109.354L5.09392 65.3374L5.97597 64.4553L49.9922 108.472ZM64.4554 108.472L108.472 64.4553C112.465 60.4612 112.465 53.9862 108.472 49.9921L64.4554 5.97593C60.4613 1.9823 53.9862 1.9823 49.9922 5.97593L5.97597 49.9921C1.98222 53.9862 1.9823 60.4612 5.97597 64.4553L5.09392 65.3374C0.753012 60.996 0.617304 54.0419 4.6873 49.5375L5.09392 49.1101L49.1101 5.09388C53.5913 0.613153 60.8562 0.613154 65.3374 5.09388L109.354 49.1101L109.76 49.5375C113.83 54.0419 113.694 60.996 109.354 65.3374L65.3374 109.354L64.9099 109.76C60.5506 113.699 53.8969 113.699 49.5376 109.76L49.1101 109.354L49.9922 108.472C53.9863 112.465 60.4612 112.465 64.4554 108.472Z" fill="#47423D"/>
<path d="M1.09617 103.124L-0.151234 103.124L-0.15123 11.3233L1.09618 11.3233L1.09617 103.124ZM11.3232 113.351L103.124 113.351C108.772 113.351 113.351 108.773 113.351 103.124L113.351 11.3233C113.351 5.67514 108.772 1.0966 103.124 1.09629L11.3232 1.09628C5.67503 1.0966 1.0965 5.67514 1.09618 11.3233L-0.15123 11.3233C-0.150925 5.18408 4.67047 0.170879 10.7334 -0.136383L11.3232 -0.151128L103.124 -0.151124C109.461 -0.150807 114.598 4.98629 114.599 11.3233L114.599 103.124L114.584 103.714C114.277 109.777 109.264 114.599 103.124 114.599L11.3232 114.599L10.7334 114.584C4.86581 114.287 0.160869 109.582 -0.136494 103.714L-0.151234 103.124L1.09617 103.124C1.09649 108.773 5.67503 113.351 11.3232 113.351Z" fill="#47423D"/>
</g>
<defs>
<clipPath id="clip0_139_3705">
<rect width="114.75" height="114.75" fill="white"/>
</clipPath>
</defs>
</svg>
