<svg width="115" height="115" viewBox="0 0 115 115" fill="none" xmlns="http://www.w3.org/2000/svg">
<g clip-path="url(#clip0_139_3658)">
<path d="M108.241 57.3759C108.241 29.2833 85.4683 6.50933 57.3759 6.50901C29.2831 6.50901 6.50901 29.2831 6.50901 57.3759C6.50933 85.4683 29.2833 108.241 57.3759 108.241V109.466L56.0314 109.448C28.3306 108.747 6.00414 86.4209 5.30203 58.7203L5.28467 57.3759C5.28467 28.607 28.607 5.28467 57.3759 5.28467L58.7203 5.30203C86.8675 6.01546 109.466 29.0567 109.466 57.3759L109.448 58.7203C108.735 86.8673 85.6947 109.465 57.3759 109.466V108.241C85.4681 108.241 108.241 85.4681 108.241 57.3759Z" fill="#47423D"/>
<path d="M113.503 57.375C113.503 26.3765 88.3735 1.24741 57.375 1.24741C26.3765 1.24741 1.24741 26.3765 1.24741 57.375C1.24741 88.3735 26.3765 113.503 57.375 113.503V114.75C25.6877 114.75 0 89.0623 0 57.375C0 25.6877 25.6877 0 57.375 0C89.0623 0 114.75 25.6877 114.75 57.375C114.75 89.0623 89.0623 114.75 57.375 114.75V113.503C88.3735 113.503 113.503 88.3735 113.503 57.375Z" fill="#47423D"/>
<path d="M84.5331 69.6713C84.5331 69.1076 84.5331 68.552 84.5331 68.0044C84.1144 68.6808 83.5346 69.2526 82.7938 69.7196C82.069 70.1706 81.296 70.4122 80.4746 70.4444V68.3185C81.4409 68.2057 82.3509 67.7951 83.2045 67.0864C84.0741 66.3617 84.6459 65.5403 84.9197 64.6223H86.659V81.5328H84.5331V69.6713ZM84.5331 79.6727H86.659V81.5328H84.5331V79.6727Z" fill="#47423D"/>
<path d="M72.4232 81.8953C71.1348 81.8953 70.0235 81.549 69.0894 80.8565C68.1714 80.1639 67.4708 79.1654 66.9877 77.8609C66.5206 76.5403 66.2871 74.9539 66.2871 73.1018C66.2871 71.2658 66.5287 69.6875 67.0118 68.3668C67.5111 67.0301 68.2197 66.0074 69.1377 65.2988C70.0718 64.5902 71.167 64.2358 72.4232 64.2358C73.6633 64.2358 74.7424 64.5902 75.6604 65.2988C76.5945 65.9913 77.3112 67.0059 77.8104 68.3427C78.3097 69.6633 78.5593 71.2497 78.5593 73.1018C78.5593 74.9539 78.3097 76.5403 77.8104 77.8609C77.3273 79.1815 76.6267 80.1881 75.7087 80.8806C74.7907 81.5571 73.6955 81.8953 72.4232 81.8953ZM72.4232 80.1801C73.2607 80.1801 73.9693 79.9304 74.5491 79.4312C75.1289 78.9158 75.5718 78.1347 75.8778 77.0878C76.1838 76.0249 76.3368 74.6962 76.3368 73.1018C76.3368 70.7021 75.9986 68.9144 75.3222 67.7387C74.6618 66.563 73.6955 65.9752 72.4232 65.9752C71.5696 65.9752 70.8449 66.2329 70.249 66.7483C69.6692 67.2636 69.2263 68.0528 68.9203 69.1157C68.6304 70.1626 68.4855 71.4913 68.4855 73.1018C68.4855 75.4693 68.8237 77.2408 69.5001 78.4165C70.1926 79.5922 71.167 80.1801 72.4232 80.1801Z" fill="#47423D"/>
<path d="M57.6078 81.8953C56.3194 81.8953 55.2081 81.549 54.274 80.8565C53.356 80.1639 52.6554 79.1654 52.1723 77.8609C51.7052 76.5403 51.4717 74.9539 51.4717 73.1018C51.4717 71.2658 51.7133 69.6875 52.1964 68.3668C52.6957 67.0301 53.4043 66.0074 54.3223 65.2988C55.2564 64.5902 56.3516 64.2358 57.6078 64.2358C58.8479 64.2358 59.9269 64.5902 60.8449 65.2988C61.779 65.9913 62.4957 67.0059 62.995 68.3427C63.4943 69.6633 63.7439 71.2497 63.7439 73.1018C63.7439 74.9539 63.4943 76.5403 62.995 77.8609C62.5118 79.1815 61.8113 80.1881 60.8933 80.8806C59.9753 81.5571 58.8801 81.8953 57.6078 81.8953ZM57.6078 80.1801C58.4453 80.1801 59.1539 79.9304 59.7337 79.4312C60.3135 78.9158 60.7564 78.1347 61.0624 77.0878C61.3684 76.0249 61.5214 74.6962 61.5214 73.1018C61.5214 70.7021 61.1832 68.9144 60.5067 67.7387C59.8464 66.563 58.8801 65.9752 57.6078 65.9752C56.7542 65.9752 56.0295 66.2329 55.4336 66.7483C54.8538 67.2636 54.4109 68.0528 54.1049 69.1157C53.815 70.1626 53.67 71.4913 53.67 73.1018C53.67 75.4693 54.0083 77.2408 54.6847 78.4165C55.3772 79.5922 56.3516 80.1801 57.6078 80.1801Z" fill="#47423D"/>
<path d="M41.4708 81.5328C41.6157 79.5841 41.9459 77.7239 42.4612 75.9524C42.9766 74.1808 43.6772 72.5058 44.563 70.9275C45.4649 69.3492 46.552 67.8917 47.8243 66.5549H38.6443V64.6223H49.8294V66.6999C48.09 68.6325 46.6647 70.8953 45.5534 73.4883C44.4583 76.0812 43.8543 78.7627 43.7416 81.5328H41.4708Z" fill="#47423D"/>
<path d="M25.4932 81.5329C25.4932 80.7921 25.6059 80.1317 25.8314 79.5519C26.0568 78.956 26.4192 78.3763 26.9185 77.8126C27.4338 77.2328 28.1344 76.6047 29.0202 75.9283L31.3152 74.1647L31.3635 74.1164C32.2976 73.3917 33.0546 72.6589 33.6344 71.9181C34.2142 71.1611 34.5041 70.3075 34.5041 69.3573C34.5041 68.7131 34.3752 68.1333 34.1175 67.6179C33.8598 67.1026 33.4894 66.6999 33.0063 66.4101C32.5231 66.1202 31.9514 65.9752 31.2911 65.9752C30.5985 65.9752 29.9946 66.1363 29.4792 66.4584C28.9638 66.7805 28.5612 67.2636 28.2713 67.9078C27.9814 68.5359 27.8365 69.3009 27.8365 70.2028V70.5169H25.6623V69.9613C25.6623 68.7856 25.9038 67.7709 26.387 66.9174C26.8863 66.0477 27.5627 65.3874 28.4163 64.9364C29.2698 64.4694 30.2281 64.2358 31.2911 64.2358C32.3379 64.2358 33.272 64.4452 34.0934 64.8639C34.9147 65.2827 35.5509 65.8786 36.0018 66.6516C36.4689 67.4086 36.7024 68.3024 36.7024 69.3332C36.7024 70.1706 36.5333 70.9517 36.1951 71.6765C35.8569 72.3851 35.3496 73.0937 34.6732 73.8024C33.9967 74.4949 33.1029 75.2599 31.9916 76.0974L30.8079 76.9912C29.9382 77.6354 29.294 78.1588 28.8753 78.5615C28.4565 78.9641 28.2069 79.3104 28.1264 79.6003H36.9923V81.5329H25.4932Z" fill="#47423D"/>
<path d="M92.7548 57.7373C91.1442 57.7373 89.727 57.383 88.503 56.6744C87.2951 55.9496 86.3529 54.9189 85.6765 53.5821C85.0001 52.2293 84.6619 50.6429 84.6619 48.823C84.6619 47.0998 85.0081 45.5778 85.7007 44.2572C86.4093 42.9205 87.3837 41.8897 88.6238 41.165C89.8639 40.4402 91.257 40.0779 92.8031 40.0779C94.1398 40.0779 95.3316 40.3356 96.3784 40.8509C97.4253 41.3502 98.2628 42.0427 98.8909 42.9285C99.519 43.8143 99.8894 44.8128 100.002 45.9241H97.5863C97.3609 44.6679 96.8294 43.6935 95.9919 43.001C95.1544 42.2924 94.0593 41.938 92.7064 41.938C91.563 41.938 90.5564 42.2199 89.6867 42.7836C88.8331 43.3311 88.1648 44.1284 87.6816 45.1752C87.2145 46.2059 86.981 47.4219 86.981 48.823C86.981 50.2242 87.2226 51.4643 87.7058 52.5434C88.1889 53.6063 88.8653 54.4277 89.735 55.0075C90.6047 55.5873 91.5952 55.8771 92.7064 55.8771C94.0754 55.8771 95.1947 55.5228 96.0644 54.8142C96.9341 54.1056 97.4897 53.1393 97.7313 51.9153H100.026C99.8813 53.107 99.4868 54.1458 98.8426 55.0316C98.1983 55.9013 97.3528 56.5697 96.306 57.0367C95.2591 57.5038 94.0754 57.7373 92.7548 57.7373Z" fill="#47423D"/>
<path d="M71.2625 40.4644H82.2543V42.3004H73.4608V47.8325H81.8678V49.6927H73.4608V55.5147H82.5442V57.3749H71.2625V40.4644Z" fill="#47423D"/>
<path d="M64.7039 40.4644H66.9022V57.3749H64.7039V40.4644ZM64.7039 55.5147H66.9022V57.3749H64.7039V55.5147ZM64.7039 40.4644H66.9022V42.3004H64.7039V40.4644Z" fill="#47423D"/>
<path d="M59.9427 40.4644H61.827L55.1353 57.3749H53.251L59.9427 40.4644Z" fill="#47423D"/>
<path d="M43.3991 57.7373C41.8852 57.7373 40.5162 57.3749 39.2922 56.6502C38.0843 55.9094 37.1261 54.8706 36.4175 53.5338C35.7249 52.1971 35.3787 50.659 35.3787 48.9197C35.3787 47.1803 35.7249 45.6423 36.4175 44.3055C37.1261 42.9688 38.0843 41.93 39.2922 41.1891C40.5162 40.4483 41.8852 40.0779 43.3991 40.0779C44.9291 40.0779 46.298 40.4483 47.5059 41.1891C48.7299 41.93 49.6882 42.9688 50.3807 44.3055C51.0732 45.6423 51.4195 47.1803 51.4195 48.9197C51.4195 50.659 51.0652 52.1971 50.3566 53.5338C49.664 54.8706 48.7058 55.9094 47.4818 56.6502C46.2739 57.3749 44.913 57.7373 43.3991 57.7373ZM43.3991 55.9013C44.5426 55.9013 45.5411 55.6195 46.3947 55.0558C47.2482 54.4921 47.9086 53.6868 48.3756 52.64C48.8588 51.577 49.1003 50.3369 49.1003 48.9197C49.1003 47.5024 48.8588 46.2704 48.3756 45.2235C47.9086 44.1606 47.2402 43.3472 46.3705 42.7836C45.5169 42.2199 44.5265 41.938 43.3991 41.938C42.2878 41.938 41.2973 42.2199 40.4277 42.7836C39.5741 43.3472 38.9057 44.1606 38.4226 45.2235C37.9394 46.2704 37.6978 47.5024 37.6978 48.9197C37.6978 50.3369 37.9313 51.577 38.3984 52.64C38.8816 53.6868 39.5499 54.4921 40.4035 55.0558C41.2571 55.6195 42.2556 55.9013 43.3991 55.9013Z" fill="#47423D"/>
<path d="M26.6162 57.7373C25.2634 57.7373 24.0716 57.5038 23.0409 57.0367C22.0101 56.5697 21.2129 55.9013 20.6492 55.0316C20.0855 54.1458 19.7956 53.1151 19.7795 51.9394H22.0262C22.0745 52.7447 22.292 53.4453 22.6785 54.0411C23.0811 54.637 23.6206 55.096 24.2971 55.4181C24.9735 55.7403 25.7546 55.9013 26.6404 55.9013C28.0093 55.9013 29.0642 55.6275 29.8051 55.0799C30.562 54.5163 30.9405 53.7674 30.9405 52.8333C30.9405 52.0763 30.6506 51.4885 30.0708 51.0697C29.5071 50.6349 28.6777 50.2886 27.5825 50.0309L25.0701 49.4511C23.669 49.129 22.5335 48.5815 21.6639 47.8084C20.7942 47.0192 20.3593 46.0127 20.3593 44.7887C20.3593 43.8868 20.6251 43.0815 21.1565 42.3729C21.688 41.6481 22.4208 41.0845 23.3549 40.6818C24.3051 40.2792 25.3681 40.0779 26.5438 40.0779C27.7516 40.0779 28.8146 40.2872 29.7326 40.706C30.6667 41.1247 31.3995 41.7206 31.931 42.4937C32.4624 43.2667 32.7604 44.1686 32.8248 45.1994H30.5781C30.5298 44.539 30.3285 43.9673 29.9742 43.4841C29.636 42.9849 29.1689 42.6064 28.573 42.3487C27.9771 42.0749 27.2846 41.938 26.4954 41.938C25.7707 41.938 25.1184 42.0508 24.5386 42.2763C23.9589 42.5017 23.4999 42.8158 23.1616 43.2184C22.8395 43.621 22.6785 44.08 22.6785 44.5954C22.6785 45.3201 22.9201 45.908 23.4032 46.3589C23.8864 46.8099 24.6272 47.1481 25.6258 47.3736L28.6213 48.05C30.0547 48.3882 31.1821 48.9438 32.0034 49.7169C32.8409 50.4738 33.2596 51.4643 33.2596 52.6883C33.2596 53.6224 32.9859 54.476 32.4383 55.249C31.9068 56.006 31.1418 56.6099 30.1433 57.0609C29.1448 57.5118 27.9691 57.7373 26.6162 57.7373Z" fill="#47423D"/>
<path d="M14.4773 40.4644H16.6757V57.3749H14.4773V40.4644ZM14.4773 55.5147H16.6757V57.3749H14.4773V55.5147ZM14.4773 40.4644H16.6757V42.3004H14.4773V40.4644Z" fill="#47423D"/>
</g>
<defs>
<clipPath id="clip0_139_3658">
<rect width="114.75" height="114.75" fill="white"/>
</clipPath>
</defs>
</svg>
