<svg width="115" height="115" viewBox="0 0 115 115" fill="none" xmlns="http://www.w3.org/2000/svg">
<g clip-path="url(#clip0_139_3635)">
<path d="M51.6328 78.5131C51.6328 77.7723 51.7455 77.112 51.971 76.5322C52.1965 75.9363 52.5589 75.3565 53.0581 74.7928C53.5735 74.213 54.2741 73.5849 55.1599 72.9085L57.4549 71.145L57.5032 71.0966C58.4373 70.3719 59.1942 69.6391 59.774 68.8983C60.3538 68.1413 60.6437 67.2878 60.6437 66.3375C60.6437 65.6933 60.5149 65.1135 60.2572 64.5982C59.9995 64.0828 59.6291 63.6802 59.1459 63.3903C58.6628 63.1004 58.091 62.9554 57.4307 62.9554C56.7382 62.9554 56.1342 63.1165 55.6189 63.4386C55.1035 63.7607 54.7009 64.2439 54.411 64.8881C54.1211 65.5162 53.9761 66.2812 53.9761 67.1831V67.4971H51.8019V66.9415C51.8019 65.7658 52.0435 64.7512 52.5267 63.8976C53.0259 63.0279 53.7023 62.3676 54.5559 61.9166C55.4095 61.4496 56.3678 61.2161 57.4307 61.2161C58.4776 61.2161 59.4117 61.4254 60.233 61.8442C61.0544 62.2629 61.6906 62.8588 62.1415 63.6319C62.6086 64.3888 62.8421 65.2826 62.8421 66.3134C62.8421 67.1509 62.673 67.932 62.3348 68.6567C61.9966 69.3653 61.4892 70.074 60.8128 70.7826C60.1364 71.4751 59.2426 72.2401 58.1313 73.0776L56.9476 73.9714C56.0779 74.6156 55.4337 75.1391 55.0149 75.5417C54.5962 75.9443 54.3465 76.2906 54.266 76.5805H63.132V78.5131H51.6328Z" fill="#47423D"/>
<path d="M74.7423 54.7175C73.1318 54.7175 71.7145 54.3632 70.4905 53.6546C69.2826 52.9298 68.3405 51.8991 67.664 50.5624C66.9876 49.2095 66.6494 47.6232 66.6494 45.8033C66.6494 44.08 66.9957 42.5581 67.6882 41.2374C68.3968 39.9007 69.3712 38.8699 70.6113 38.1452C71.8514 37.4205 73.2445 37.0581 74.7906 37.0581C76.1274 37.0581 77.3191 37.3158 78.366 37.8312C79.4128 38.3304 80.2503 39.0229 80.8784 39.9087C81.5065 40.7945 81.8769 41.7931 81.9897 42.9043H79.5739C79.3484 41.6481 78.8169 40.6737 77.9795 39.9812C77.142 39.2726 76.0468 38.9183 74.694 38.9183C73.5505 38.9183 72.5439 39.2001 71.6743 39.7638C70.8207 40.3114 70.1523 41.1086 69.6691 42.1554C69.2021 43.1862 68.9686 44.4021 68.9686 45.8033C68.9686 47.2044 69.2101 48.4445 69.6933 49.5236C70.1765 50.5865 70.8529 51.4079 71.7226 51.9877C72.5923 52.5675 73.5827 52.8574 74.694 52.8574C76.0629 52.8574 77.1823 52.5031 78.0519 51.7944C78.9216 51.0858 79.4773 50.1195 79.7188 48.8955H82.0138C81.8689 50.0873 81.4743 51.1261 80.8301 52.0118C80.1859 52.8815 79.3404 53.5499 78.2935 54.017C77.2467 54.484 76.0629 54.7175 74.7423 54.7175Z" fill="#47423D"/>
<path d="M56.3627 54.7175C54.8488 54.7175 53.4799 54.3552 52.2559 53.6304C51.048 52.8896 50.0897 51.8508 49.3811 50.5141C48.6885 49.1773 48.3423 47.6393 48.3423 45.8999C48.3423 44.1605 48.6885 42.6225 49.3811 41.2857C50.0897 39.949 51.048 38.9102 52.2559 38.1694C53.4799 37.4285 54.8488 37.0581 56.3627 37.0581C57.8927 37.0581 59.2617 37.4285 60.4695 38.1694C61.6935 38.9102 62.6518 39.949 63.3443 41.2857C64.0369 42.6225 64.3831 44.1605 64.3831 45.8999C64.3831 47.6393 64.0288 49.1773 63.3202 50.5141C62.6277 51.8508 61.6694 52.8896 60.4454 53.6304C59.2375 54.3552 57.8766 54.7175 56.3627 54.7175ZM56.3627 52.8815C57.5062 52.8815 58.5047 52.5997 59.3583 52.036C60.2119 51.4723 60.8722 50.6671 61.3392 49.6202C61.8224 48.5573 62.064 47.3172 62.064 45.8999C62.064 44.4826 61.8224 43.2506 61.3392 42.2037C60.8722 41.1408 60.2038 40.3275 59.3341 39.7638C58.4805 39.2001 57.4901 38.9183 56.3627 38.9183C55.2514 38.9183 54.261 39.2001 53.3913 39.7638C52.5377 40.3275 51.8693 41.1408 51.3862 42.2037C50.903 43.2506 50.6614 44.4826 50.6614 45.8999C50.6614 47.3172 50.895 48.5573 51.362 49.6202C51.8452 50.6671 52.5135 51.4723 53.3671 52.036C54.2207 52.5997 55.2192 52.8815 56.3627 52.8815Z" fill="#47423D"/>
<path d="M39.5798 54.7175C38.227 54.7175 37.0352 54.484 36.0045 54.017C34.9737 53.5499 34.1765 52.8815 33.6128 52.0118C33.0492 51.1261 32.7593 50.0953 32.7432 48.9196H34.9898C35.0382 49.7249 35.2556 50.4255 35.6421 51.0214C36.0447 51.6173 36.5843 52.0763 37.2607 52.3984C37.9371 52.7205 38.7182 52.8815 39.604 52.8815C40.973 52.8815 42.0278 52.6077 42.7687 52.0602C43.5256 51.4965 43.9041 50.7476 43.9041 49.8135C43.9041 49.0565 43.6142 48.4687 43.0344 48.0499C42.4707 47.6151 41.6413 47.2688 40.5462 47.0112L38.0337 46.4314C36.6326 46.1093 35.4972 45.5617 34.6275 44.7886C33.7578 43.9995 33.323 42.9929 33.323 41.7689C33.323 40.867 33.5887 40.0617 34.1202 39.3531C34.6516 38.6284 35.3844 38.0647 36.3185 37.6621C37.2687 37.2594 38.3317 37.0581 39.5074 37.0581C40.7153 37.0581 41.7782 37.2675 42.6962 37.6862C43.6303 38.1049 44.3631 38.7008 44.8946 39.4739C45.4261 40.2469 45.724 41.1488 45.7884 42.1796H43.5417C43.4934 41.5193 43.2921 40.9475 42.9378 40.4644C42.5996 39.9651 42.1325 39.5866 41.5366 39.3289C40.9407 39.0552 40.2482 38.9183 39.4591 38.9183C38.7343 38.9183 38.0821 39.031 37.5023 39.2565C36.9225 39.4819 36.4635 39.796 36.1253 40.1986C35.8032 40.6013 35.6421 41.0603 35.6421 41.5756C35.6421 42.3004 35.8837 42.8882 36.3668 43.3392C36.85 43.7901 37.5908 44.1283 38.5894 44.3538L41.585 45.0302C43.0183 45.3684 44.1457 45.9241 44.9671 46.6971C45.8045 47.4541 46.2233 48.4445 46.2233 49.6685C46.2233 50.6026 45.9495 51.4562 45.4019 52.2293C44.8704 52.9862 44.1054 53.5902 43.1069 54.0411C42.1084 54.4921 40.9327 54.7175 39.5798 54.7175Z" fill="#47423D"/>
<path d="M108.333 14.3438V40.2799C108.333 68.5903 93.1628 94.731 68.5825 108.777L58.1299 114.75L47.6773 108.777C23.0969 94.731 7.92676 68.5903 7.92676 40.2799V14.3438L58.1299 0L108.333 14.3438ZM9.17417 15.283V40.2799C9.17417 68.1425 24.1037 93.8692 48.2951 107.693L58.1299 113.312L67.9647 107.693C92.156 93.8692 107.086 68.1425 107.086 40.2799V15.283L58.1299 1.29607L9.17417 15.283Z" fill="#47423D"/>
</g>
<defs>
<clipPath id="clip0_139_3635">
<rect width="114.75" height="114.75" fill="white"/>
</clipPath>
</defs>
</svg>
