<svg width="115" height="115" viewBox="0 0 115 115" fill="none" xmlns="http://www.w3.org/2000/svg">
<g clip-path="url(#clip0_139_3677)">
<path d="M113.503 57.375C113.503 26.3765 88.3735 1.24741 57.375 1.24741C26.3765 1.24741 1.24741 26.3765 1.24741 57.375C1.24741 88.3735 26.3765 113.503 57.375 113.503V114.75C25.6877 114.75 0 89.0623 0 57.375C0 25.6877 25.6877 0 57.375 0C89.0623 0 114.75 25.6877 114.75 57.375C114.75 89.0623 89.0623 114.75 57.375 114.75V113.503C88.3735 113.503 113.503 88.3735 113.503 57.375Z" fill="#47423D"/>
<path d="M80.3323 78.5131C80.3323 77.7723 80.445 77.112 80.6705 76.5322C80.896 75.9363 81.2583 75.3565 81.7576 74.7928C82.273 74.213 82.9735 73.5849 83.8593 72.9085L86.1543 71.145L86.2026 71.0966C87.1367 70.3719 87.8937 69.6391 88.4735 68.8983C89.0533 68.1413 89.3432 67.2878 89.3432 66.3375C89.3432 65.6933 89.2143 65.1135 88.9566 64.5982C88.699 64.0828 88.3285 63.6802 87.8454 63.3903C87.3622 63.1004 86.7905 62.9554 86.1302 62.9554C85.4376 62.9554 84.8337 63.1165 84.3183 63.4386C83.803 63.7607 83.4003 64.2439 83.1104 64.8881C82.8205 65.5162 82.6756 66.2812 82.6756 67.1831V67.4971H80.5014V66.9415C80.5014 65.7658 80.743 64.7512 81.2261 63.8976C81.7254 63.0279 82.4018 62.3676 83.2554 61.9166C84.109 61.4496 85.0672 61.2161 86.1302 61.2161C87.177 61.2161 88.1111 61.4254 88.9325 61.8442C89.7539 62.2629 90.39 62.8588 90.841 63.6319C91.308 64.3888 91.5415 65.2826 91.5415 66.3134C91.5415 67.1509 91.3724 67.932 91.0342 68.6567C90.696 69.3653 90.1887 70.074 89.5123 70.7826C88.8359 71.4751 87.942 72.2401 86.8307 73.0776L85.647 73.9714C84.7773 74.6156 84.1331 75.1391 83.7144 75.5417C83.2956 75.9443 83.046 76.2906 82.9655 76.5805H91.8314V78.5131H80.3323Z" fill="#47423D"/>
<path d="M59.5964 61.6025H66.7713C68.4141 61.6025 69.7025 61.9891 70.6366 62.7621C71.5868 63.5352 72.0619 64.6303 72.0619 66.0476C72.0619 67.0461 71.7479 67.9158 71.1197 68.6566C70.5077 69.3975 69.783 69.8968 68.9455 70.1544C69.7669 70.2994 70.4272 70.7101 70.9265 71.3865C71.4419 72.0629 71.6995 72.9406 71.6995 74.0197V78.5131H69.5012V74.6236C69.5012 73.303 69.2274 72.3931 68.6798 71.8938C68.1483 71.3784 67.2384 71.1208 65.95 71.1208H61.7948V78.5131H59.5964V61.6025ZM66.2399 69.2606C66.9968 69.2606 67.641 69.1479 68.1725 68.9224C68.704 68.6969 69.1066 68.3668 69.3804 67.9319C69.6703 67.481 69.8152 66.9414 69.8152 66.3133C69.8152 65.3631 69.5012 64.6464 68.8731 64.1633C68.2611 63.6801 67.3833 63.4385 66.2399 63.4385H61.7948V69.2606H66.2399Z" fill="#47423D"/>
<path d="M44.8752 61.6025H55.8671V63.4385H47.0736V68.9707H55.4806V70.8309H47.0736V76.6529H56.157V78.5131H44.8752V61.6025Z" fill="#47423D"/>
<path d="M38.3168 61.6025H40.5151V78.5131H38.3168V61.6025ZM38.3168 76.6529H40.5151V78.5131H38.3168V76.6529ZM38.3168 61.6025H40.5151V63.4385H38.3168V61.6025Z" fill="#47423D"/>
<path d="M27.886 63.4385H22.0398V61.6025H35.9064V63.4385H30.0844V78.5131H27.886V63.4385Z" fill="#47423D"/>
<path d="M80.4203 37.4448H83.0777L89.8661 54.3554H87.4261L82.1839 40.7303C82.1355 40.6015 82.0872 40.4726 82.0389 40.3438C81.9262 40.0378 81.8134 39.7398 81.7007 39.4499C81.6363 39.6432 81.5799 39.7881 81.5316 39.8848C81.4994 39.9814 81.4511 40.1264 81.3867 40.3196L81.2175 40.7303L75.9753 54.3554H73.6561L80.4203 37.4448ZM77.5455 47.4945H85.8317V49.3305H77.5455V47.4945Z" fill="#47423D"/>
<path d="M66.1206 54.7175C64.7678 54.7175 63.576 54.484 62.5453 54.017C61.5145 53.5499 60.7173 52.8815 60.1536 52.0118C59.5899 51.1261 59.3 50.0953 59.2839 48.9196H61.5306C61.5789 49.7249 61.7964 50.4255 62.1829 51.0214C62.5855 51.6173 63.125 52.0763 63.8015 52.3984C64.4779 52.7205 65.259 52.8815 66.1448 52.8815C67.5137 52.8815 68.5686 52.6077 69.3095 52.0602C70.0664 51.4965 70.4449 50.7476 70.4449 49.8135C70.4449 49.0565 70.155 48.4687 69.5752 48.0499C69.0115 47.6151 68.1821 47.2688 67.0869 47.0112L64.5745 46.4314C63.1734 46.1093 62.0379 45.5617 61.1683 44.7886C60.2986 43.9995 59.8637 42.9929 59.8637 41.7689C59.8637 40.867 60.1295 40.0617 60.6609 39.3531C61.1924 38.6284 61.9252 38.0647 62.8593 37.6621C63.8095 37.2594 64.8725 37.0581 66.0481 37.0581C67.256 37.0581 68.319 37.2675 69.237 37.6862C70.1711 38.1049 70.9039 38.7008 71.4354 39.4739C71.9668 40.2469 72.2648 41.1488 72.3292 42.1796H70.0825C70.0342 41.5193 69.8329 40.9475 69.4786 40.4644C69.1404 39.9651 68.6733 39.5866 68.0774 39.3289C67.4815 39.0552 66.789 38.9183 65.9998 38.9183C65.2751 38.9183 64.6228 39.031 64.043 39.2565C63.4633 39.4819 63.0043 39.796 62.666 40.1986C62.3439 40.6013 62.1829 41.0603 62.1829 41.5756C62.1829 42.3004 62.4245 42.8882 62.9076 43.3392C63.3908 43.7901 64.1316 44.1283 65.1301 44.3538L68.1257 45.0302C69.5591 45.3684 70.6865 45.9241 71.5078 46.6971C72.3453 47.4541 72.764 48.4445 72.764 49.6685C72.764 50.6026 72.4903 51.4562 71.9427 52.2293C71.4112 52.9862 70.6462 53.5902 69.6477 54.0411C68.6491 54.4921 67.4735 54.7175 66.1206 54.7175Z" fill="#47423D"/>
<path d="M49.0669 37.4448H51.7243L58.5127 54.3554H56.0727L50.8305 40.7303C50.7822 40.6015 50.7338 40.4726 50.6855 40.3438C50.5728 40.0378 50.4601 39.7398 50.3473 39.4499C50.2829 39.6432 50.2265 39.7881 50.1782 39.8848C50.146 39.9814 50.0977 40.1264 50.0333 40.3196L49.8642 40.7303L44.6219 54.3554H42.3027L49.0669 37.4448ZM46.1922 47.4945H54.4783V49.3305H46.1922V47.4945Z" fill="#47423D"/>
<path d="M33.9996 54.7175C32.3891 54.7175 30.9718 54.3632 29.7478 53.6546C28.5399 52.9298 27.5978 51.8991 26.9214 50.5624C26.2449 49.2095 25.9067 47.6232 25.9067 45.8033C25.9067 44.08 26.253 42.5581 26.9455 41.2374C27.6542 39.9007 28.6285 38.8699 29.8686 38.1452C31.1087 37.4205 32.5018 37.0581 34.0479 37.0581C35.3847 37.0581 36.5765 37.3158 37.6233 37.8312C38.6702 38.3304 39.5076 39.0229 40.1357 39.9087C40.7638 40.7945 41.1343 41.7931 41.247 42.9043H38.8312C38.6057 41.6481 38.0743 40.6737 37.2368 39.9812C36.3993 39.2726 35.3042 38.9183 33.9513 38.9183C32.8078 38.9183 31.8013 39.2001 30.9316 39.7638C30.078 40.3114 29.4096 41.1086 28.9265 42.1554C28.4594 43.1862 28.2259 44.4021 28.2259 45.8033C28.2259 47.2044 28.4675 48.4445 28.9506 49.5236C29.4338 50.5865 30.1102 51.4079 30.9799 51.9877C31.8496 52.5675 32.8401 52.8574 33.9513 52.8574C35.3203 52.8574 36.4396 52.5031 37.3093 51.7944C38.1789 51.0858 38.7346 50.1195 38.9762 48.8955H41.2712C41.1262 50.0873 40.7316 51.1261 40.0874 52.0118C39.4432 52.8815 38.5977 53.5499 37.5508 54.017C36.504 54.484 35.3203 54.7175 33.9996 54.7175Z" fill="#47423D"/>
</g>
<defs>
<clipPath id="clip0_139_3677">
<rect width="114.75" height="114.75" fill="white"/>
</clipPath>
</defs>
</svg>
