<svg width="115" height="115" viewBox="0 0 115 115" fill="none" xmlns="http://www.w3.org/2000/svg">
<g clip-path="url(#clip0_139_3645)">
<path d="M103.276 113.503V114.75H11.4744V113.503H103.276ZM113.503 103.276V11.4744C113.502 5.82626 108.924 1.24773 103.276 1.24741H11.4744C5.82626 1.24773 1.24773 5.82626 1.24741 11.4744V103.276C1.24773 108.924 5.82626 113.502 11.4744 113.503V114.75C5.33521 114.75 0.322007 109.928 0.0147448 103.865L0 103.276V11.4744C0.000316514 5.13741 5.13741 0.000318818 11.4744 0H103.276L103.865 0.0147448C109.928 0.322005 114.75 5.33521 114.75 11.4744V103.276L114.735 103.865C114.438 109.733 109.733 114.438 103.865 114.735L103.276 114.75V113.503C108.924 113.502 113.502 108.924 113.503 103.276Z" fill="#47423D"/>
<path d="M56.4786 48.2308V43.9277H58.2715V48.2308H56.4786Z" fill="#47423D"/>
<path fill-rule="evenodd" clip-rule="evenodd" d="M50.9204 39.6246C49.7321 39.6246 48.7688 40.5878 48.7688 41.7761V50.3824C48.7688 51.5707 49.7321 52.5339 50.9204 52.5339H63.8297C65.018 52.5339 65.9813 51.5707 65.9813 50.3824V41.7761C65.9813 40.5878 65.018 39.6246 63.8297 39.6246H50.9204ZM63.8297 41.4175H50.9204C50.7223 41.4175 50.5618 41.5781 50.5618 41.7761V50.3824C50.5618 50.5804 50.7223 50.741 50.9204 50.741H63.8297C64.0278 50.741 64.1883 50.5804 64.1883 50.3824V41.7761C64.1883 41.5781 64.0278 41.4175 63.8297 41.4175Z" fill="#47423D"/>
<path d="M52.1754 35.3214C52.1754 32.4498 54.5034 30.1218 57.375 30.1218C60.2467 30.1218 62.5747 32.4498 62.5747 35.3214V37.473H60.7817V35.3214C60.7817 33.44 59.2565 31.9148 57.375 31.9148C55.4936 31.9148 53.9684 33.44 53.9684 35.3214V37.473H52.1754V35.3214Z" fill="#47423D"/>
<path d="M79.9798 60.9324H82.6371L89.4255 77.8429H86.9856L81.7433 64.2178C81.695 64.089 81.6467 63.9602 81.5984 63.8313C81.4856 63.5253 81.3729 63.2274 81.2602 62.9375C81.1957 63.1307 81.1394 63.2757 81.091 63.3723C81.0588 63.469 81.0105 63.6139 80.9461 63.8072L80.777 64.2178L75.5347 77.8429H73.2156L79.9798 60.9324ZM77.105 70.9821H85.3911V72.8181H77.105V70.9821Z" fill="#47423D"/>
<path d="M61.1848 60.9324H67.7799C68.859 60.9324 69.8253 61.0854 70.6789 61.3914C71.5485 61.6813 72.2491 62.1886 72.7806 62.9133C73.3121 63.622 73.5778 64.5641 73.5778 65.7398C73.5778 66.9155 73.3201 67.8576 72.8048 68.5663C72.2894 69.2749 71.5969 69.7822 70.7272 70.0882C69.8736 70.3781 68.8912 70.5231 67.7799 70.5231H63.3832V77.8429H61.1848V60.9324ZM67.7558 68.6871C68.9959 68.6871 69.8978 68.4294 70.4614 67.914C71.0412 67.3986 71.3311 66.6739 71.3311 65.7398C71.3311 64.7896 71.0412 64.0568 70.4614 63.5414C69.8978 63.0261 68.9959 62.7684 67.7558 62.7684H63.3832V68.6871H67.7558Z" fill="#47423D"/>
<path d="M50.8282 78.2051C49.2177 78.2051 47.8005 77.8508 46.5765 77.1421C45.3686 76.4174 44.4264 75.3867 43.75 74.0499C43.0736 72.6971 42.7354 71.1107 42.7354 69.2908C42.7354 67.5675 43.0816 66.0456 43.7741 64.725C44.4828 63.3882 45.4571 62.3575 46.6972 61.6328C47.9374 60.908 49.3305 60.5457 50.8766 60.5457C52.2133 60.5457 53.4051 60.8033 54.4519 61.3187C55.4988 61.818 56.3362 62.5105 56.9644 63.3963C57.5925 64.2821 57.9629 65.2806 58.0756 66.3919H55.6598C55.4344 65.1357 54.9029 64.1613 54.0654 63.4688C53.2279 62.7601 52.1328 62.4058 50.7799 62.4058C49.6365 62.4058 48.6299 62.6877 47.7602 63.2513C46.9066 63.7989 46.2382 64.5961 45.7551 65.643C45.288 66.6737 45.0545 67.8897 45.0545 69.2908C45.0545 70.692 45.2961 71.9321 45.7792 73.0111C46.2624 74.0741 46.9388 74.8954 47.8085 75.4752C48.6782 76.055 49.6687 76.3449 50.7799 76.3449C52.1489 76.3449 53.2682 75.9906 54.1379 75.282C55.0076 74.5733 55.5632 73.607 55.8048 72.383H58.0998C57.9548 73.5748 57.5602 74.6136 56.916 75.4994C56.2718 76.3691 55.4263 77.0374 54.3795 77.5045C53.3326 77.9715 52.1489 78.2051 50.8282 78.2051Z" fill="#47423D"/>
<path d="M33.4174 78.2051C31.8068 78.2051 30.3896 77.8508 29.1656 77.1421C27.9577 76.4174 27.0155 75.3867 26.3391 74.0499C25.6627 72.6971 25.3245 71.1107 25.3245 69.2908C25.3245 67.5675 25.6707 66.0456 26.3633 64.725C27.0719 63.3882 28.0463 62.3575 29.2864 61.6328C30.5265 60.908 31.9196 60.5457 33.4657 60.5457C34.8024 60.5457 35.9942 60.8033 37.041 61.3187C38.0879 61.818 38.9254 62.5105 39.5535 63.3963C40.1816 64.2821 40.552 65.2806 40.6647 66.3919H38.2489C38.0235 65.1357 37.492 64.1613 36.6545 63.4688C35.817 62.7601 34.7219 62.4058 33.369 62.4058C32.2256 62.4058 31.219 62.6877 30.3493 63.2513C29.4957 63.7989 28.8274 64.5961 28.3442 65.643C27.8771 66.6737 27.6436 67.8897 27.6436 69.2908C27.6436 70.692 27.8852 71.9321 28.3684 73.0111C28.8515 74.0741 29.5279 74.8954 30.3976 75.4752C31.2673 76.055 32.2578 76.3449 33.369 76.3449C34.738 76.3449 35.8573 75.9906 36.727 75.282C37.5967 74.5733 38.1523 73.607 38.3939 72.383H40.6889C40.5439 73.5748 40.1494 74.6136 39.5051 75.4994C38.8609 76.3691 38.0154 77.0374 36.9686 77.5045C35.9217 77.9715 34.738 78.2051 33.4174 78.2051Z" fill="#47423D"/>
</g>
<defs>
<clipPath id="clip0_139_3645">
<rect width="114.75" height="114.75" fill="white"/>
</clipPath>
</defs>
</svg>
