<svg width="115" height="115" viewBox="0 0 115 115" fill="none" xmlns="http://www.w3.org/2000/svg">
<g clip-path="url(#clip0_139_3692)">
<path d="M103.276 113.503V114.75H11.4744V113.503H103.276ZM113.503 103.276V11.4744C113.502 5.82626 108.924 1.24773 103.276 1.24741H11.4744C5.82626 1.24773 1.24773 5.82626 1.24741 11.4744V103.276C1.24773 108.924 5.82626 113.502 11.4744 113.503V114.75C5.33521 114.75 0.322007 109.928 0.0147448 103.865L0 103.276V11.4744C0.000316514 5.13741 5.13741 0.000318818 11.4744 0H103.276L103.865 0.0147448C109.928 0.322005 114.75 5.33521 114.75 11.4744V103.276L114.735 103.865C114.438 109.733 109.733 114.438 103.865 114.735L103.276 114.75V113.503C108.924 113.502 113.502 108.924 113.503 103.276Z" fill="#47423D"/>
<path d="M55.2057 48.2308V43.9277H56.9987V48.2308H55.2057Z" fill="#47423D"/>
<path fill-rule="evenodd" clip-rule="evenodd" d="M49.6475 39.6246C48.4593 39.6246 47.496 40.5878 47.496 41.7761V50.3824C47.496 51.5707 48.4593 52.5339 49.6475 52.5339H62.5569C63.7452 52.5339 64.7085 51.5707 64.7085 50.3824V41.7761C64.7085 40.5878 63.7452 39.6246 62.5569 39.6246H49.6475ZM62.5569 41.4175H49.6475C49.4495 41.4175 49.2889 41.5781 49.2889 41.7761V50.3824C49.2889 50.5804 49.4495 50.741 49.6475 50.741H62.5569C62.755 50.741 62.9155 50.5804 62.9155 50.3824V41.7761C62.9155 41.5781 62.755 41.4175 62.5569 41.4175Z" fill="#47423D"/>
<path d="M50.9026 35.3214C50.9026 32.4498 53.2306 30.1218 56.1022 30.1218C58.9739 30.1218 61.3018 32.4498 61.3018 35.3214V37.473H59.5089V35.3214C59.5089 33.44 57.9837 31.9148 56.1022 31.9148C54.2208 31.9148 52.6956 33.44 52.6956 35.3214V37.473H50.9026V35.3214Z" fill="#47423D"/>
<path d="M78.6008 60.9324H81.2581L88.0465 77.8429H85.6065L80.3643 64.2178C80.316 64.089 80.2677 63.9602 80.2193 63.8313C80.1066 63.5253 79.9939 63.2274 79.8811 62.9375C79.8167 63.1307 79.7603 63.2757 79.712 63.3723C79.6798 63.469 79.6315 63.6139 79.5671 63.8072L79.398 64.2178L74.1557 77.8429H71.8365L78.6008 60.9324ZM75.726 70.9821H84.0121V72.8181H75.726V70.9821Z" fill="#47423D"/>
<path d="M57.824 60.9324H64.9989C66.6416 60.9324 67.93 61.3189 68.8641 62.092C69.8143 62.865 70.2894 63.9602 70.2894 65.3774C70.2894 66.376 69.9754 67.2456 69.3473 67.9865C68.7353 68.7273 68.0106 69.2266 67.1731 69.4843C67.9944 69.6292 68.6548 70.0399 69.154 70.7163C69.6694 71.3927 69.9271 72.2705 69.9271 73.3495V77.8429H67.7287V73.9535C67.7287 72.6328 67.4549 71.7229 66.9073 71.2236C66.3759 70.7083 65.4659 70.4506 64.1775 70.4506H60.0223V77.8429H57.824V60.9324ZM64.4674 68.5904C65.2243 68.5904 65.8686 68.4777 66.4 68.2522C66.9315 68.0267 67.3341 67.6966 67.6079 67.2617C67.8978 66.8108 68.0428 66.2713 68.0428 65.6432C68.0428 64.693 67.7287 63.9763 67.1006 63.4931C66.4886 63.01 65.6109 62.7684 64.4674 62.7684H60.0223V68.5904H64.4674Z" fill="#47423D"/>
<path d="M42.6073 60.9324H49.2024C50.2815 60.9324 51.2478 61.0854 52.1014 61.3914C52.971 61.6813 53.6716 62.1886 54.2031 62.9133C54.7346 63.622 55.0003 64.5641 55.0003 65.7398C55.0003 66.9155 54.7426 67.8576 54.2273 68.5663C53.7119 69.2749 53.0194 69.7822 52.1497 70.0882C51.2961 70.3781 50.3137 70.5231 49.2024 70.5231H44.8057V77.8429H42.6073V60.9324ZM49.1782 68.6871C50.4184 68.6871 51.3202 68.4294 51.8839 67.914C52.4637 67.3986 52.7536 66.6739 52.7536 65.7398C52.7536 64.7896 52.4637 64.0568 51.8839 63.5414C51.3202 63.0261 50.4184 62.7684 49.1782 62.7684H44.8057V68.6871H49.1782Z" fill="#47423D"/>
<path d="M32.2507 78.2051C30.6402 78.2051 29.2229 77.8508 27.9989 77.1421C26.791 76.4174 25.8489 75.3867 25.1725 74.0499C24.496 72.6971 24.1578 71.1107 24.1578 69.2908C24.1578 67.5675 24.5041 66.0456 25.1966 64.725C25.9053 63.3882 26.8796 62.3575 28.1197 61.6328C29.3598 60.908 30.7529 60.5457 32.299 60.5457C33.6358 60.5457 34.8276 60.8033 35.8744 61.3187C36.9213 61.818 37.7587 62.5105 38.3868 63.3963C39.0149 64.2821 39.3854 65.2806 39.4981 66.3919H37.0823C36.8568 65.1357 36.3254 64.1613 35.4879 63.4688C34.6504 62.7601 33.5553 62.4058 32.2024 62.4058C31.0589 62.4058 30.0524 62.6877 29.1827 63.2513C28.3291 63.7989 27.6607 64.5961 27.1776 65.643C26.7105 66.6737 26.477 67.8897 26.477 69.2908C26.477 70.692 26.7186 71.9321 27.2017 73.0111C27.6849 74.0741 28.3613 74.8954 29.231 75.4752C30.1007 76.055 31.0912 76.3449 32.2024 76.3449C33.5714 76.3449 34.6907 75.9906 35.5604 75.282C36.43 74.5733 36.9857 73.607 37.2273 72.383H39.5223C39.3773 73.5748 38.9827 74.6136 38.3385 75.4994C37.6943 76.3691 36.8488 77.0374 35.8019 77.5045C34.7551 77.9715 33.5714 78.2051 32.2507 78.2051Z" fill="#47423D"/>
</g>
<defs>
<clipPath id="clip0_139_3692">
<rect width="114.75" height="114.75" fill="white"/>
</clipPath>
</defs>
</svg>
