<svg width="33" height="32" viewBox="0 0 33 32" fill="none" xmlns="http://www.w3.org/2000/svg">
<g clip-path="url(#clip0_4497_106411)">
<path d="M28.9483 0H4.05173C2.09016 0 0.5 1.59016 0.5 3.55173V28.4483C0.5 30.4098 2.09016 32 4.05173 32H28.9483C30.9098 32 32.5 30.4098 32.5 28.4483V3.55173C32.5 1.59016 30.9098 0 28.9483 0Z" fill="#1A1A1A"/>
<path d="M10.0403 23.6779L11.8299 16.0032H7.16309L8.95272 23.6779C9.0835 24.2492 9.89572 24.2492 10.0334 23.6779H10.0403Z" fill="white"/>
<path d="M13.6265 8.3213L11.8369 15.9961H16.5037L14.7141 8.3213C14.5833 7.75 13.7711 7.75 13.6334 8.3213H13.6265Z" fill="white"/>
<path d="M19.3738 23.6779L21.1634 16.0032H16.4966L18.2862 23.6779C18.417 24.2492 19.2292 24.2492 19.3669 23.6779H19.3738Z" fill="white"/>
<path d="M22.9532 8.3213L21.1636 15.9961H25.8304L24.0408 8.3213C23.91 7.75 23.0978 7.75 22.9601 8.3213H22.9532Z" fill="white"/>
</g>
<defs>
<clipPath id="clip0_4497_106411">
<rect width="32" height="32" fill="white" transform="translate(0.5)"/>
</clipPath>
</defs>
</svg>
