<svg width="115" height="115" viewBox="0 0 115 115" fill="none" xmlns="http://www.w3.org/2000/svg">
<g clip-path="url(#clip0_139_3614)">
<path d="M55.0386 0L57.0459 4.47548L61.9163 4.98555L58.28 8.27635L59.3001 13.0645L55.0386 10.6293L50.7934 13.0645L51.8136 8.27635L48.1772 4.98555L53.0476 4.47548L55.0386 0Z" fill="#47423D"/>
<path d="M26.6716 8.85229L30.6371 11.7153L35.1125 9.74081L33.6152 14.3973L36.8896 18.0501H31.9863L29.5346 22.2952L28.0044 17.6387L23.2163 16.6021L27.1653 13.7227L26.6716 8.85229Z" fill="#47423D"/>
<path d="M6.51587 30.7031L11.3862 31.2132L14.2821 27.2478L15.3023 32.0359L19.9588 33.5661L15.7301 36.0178L15.7136 40.9211L12.0773 37.6467L7.40438 39.144L9.39531 34.6685L6.51587 30.7031Z" fill="#47423D"/>
<path d="M0 59.6948L4.47548 57.7039L4.98555 52.8335L8.27635 56.4698L13.0645 55.4497L10.6293 59.6948L13.0645 63.9564L8.27635 62.9362L4.98555 66.5726L4.47548 61.7022L0 59.6948Z" fill="#47423D"/>
<path d="M8.85205 88.0785L11.715 84.1131L9.74057 79.6376L14.397 81.1349L18.0498 77.8606V82.7639L22.2949 85.2155L17.6385 86.7457L16.6019 91.5338L13.7224 87.5849L8.85205 88.0785Z" fill="#47423D"/>
<path d="M30.7031 108.234L31.2132 103.348L27.2478 100.468L32.0359 99.4315L33.5661 94.7915L36.0178 99.0202L40.9211 99.0366L37.6467 102.673L39.144 107.346L34.6685 105.355L30.7031 108.234Z" fill="#47423D"/>
<path d="M59.6948 114.75L57.7039 110.274L52.8335 109.764L56.4698 106.473L55.4497 101.685L59.6948 104.12L63.9564 101.685L62.9362 106.473L66.5726 109.764L61.7022 110.274L59.6948 114.75Z" fill="#47423D"/>
<path d="M88.078 105.898L84.1126 103.035L79.6371 105.009L81.1345 100.353L77.8601 96.7H82.7634L85.215 92.4548L86.7453 97.1113L91.5334 98.1479L87.5844 101.027L88.078 105.898Z" fill="#47423D"/>
<path d="M108.234 84.047L103.347 83.537L100.468 87.5024L99.4313 82.7143L94.7913 81.184L99.0199 78.7324L99.0364 73.8291L102.673 77.1034L107.346 75.6061L105.355 80.0816L108.234 84.047Z" fill="#47423D"/>
<path d="M114.75 55.0386L110.274 57.0459L109.764 61.9163L106.473 58.28L101.685 59.3001L104.12 55.0386L101.685 50.7934L106.473 51.8136L109.764 48.1772L110.274 53.0476L114.75 55.0386Z" fill="#47423D"/>
<path d="M105.898 26.6719L103.035 30.6373L105.009 35.1128L100.353 33.6155L96.7 36.8898V31.9865L92.4548 29.5349L97.1113 28.0047L98.1479 23.2166L101.027 27.1655L105.898 26.6719Z" fill="#47423D"/>
<path d="M84.047 6.51562L83.5369 11.386L87.5024 14.2819L82.7142 15.302L81.184 19.9585L78.7324 15.7299L73.8291 15.7134L77.1034 12.0771L75.6061 7.40414L80.0816 9.39507L84.047 6.51562Z" fill="#47423D"/>
<path d="M76.7593 49.5237H83.9342C85.5769 49.5237 86.8653 49.9102 87.7994 50.6833C88.7496 51.4563 89.2248 52.5515 89.2248 53.9687C89.2248 54.9673 88.9107 55.8369 88.2826 56.5778C87.6706 57.3186 86.9459 57.8179 86.1084 58.0756C86.9298 58.2205 87.5901 58.6312 88.0893 59.3076C88.6047 59.984 88.8624 60.8618 88.8624 61.9408V66.4342H86.664V62.5448C86.664 61.2242 86.3902 60.3142 85.8427 59.8149C85.3112 59.2996 84.4012 59.0419 83.1128 59.0419H78.9576V66.4342H76.7593V49.5237ZM83.4027 57.1817C84.1596 57.1817 84.8039 57.069 85.3353 56.8435C85.8668 56.6181 86.2694 56.2879 86.5432 55.853C86.8331 55.4021 86.9781 54.8626 86.9781 54.2345C86.9781 53.2843 86.664 52.5676 86.0359 52.0844C85.4239 51.6013 84.5462 51.3597 83.4027 51.3597H78.9576V57.1817H83.4027Z" fill="#47423D"/>
<path d="M61.5427 49.5237H68.1378C69.2169 49.5237 70.1832 49.6767 71.0368 49.9827C71.9065 50.2726 72.607 50.7799 73.1385 51.5046C73.67 52.2133 73.9357 53.1554 73.9357 54.3311C73.9357 55.5068 73.678 56.4489 73.1627 57.1576C72.6473 57.8662 71.9548 58.3735 71.0851 58.6795C70.2315 58.9694 69.2491 59.1144 68.1378 59.1144H63.7411V66.4342H61.5427V49.5237ZM68.1137 57.2784C69.3538 57.2784 70.2557 57.0207 70.8194 56.5053C71.3991 55.9899 71.689 55.2652 71.689 54.3311C71.689 53.3809 71.3991 52.6481 70.8194 52.1327C70.2557 51.6174 69.3538 51.3597 68.1137 51.3597H63.7411V57.2784H68.1137Z" fill="#47423D"/>
<path d="M44.085 49.5237H49.1581C51.0424 49.5237 52.653 49.8136 53.9897 50.3934C55.3425 50.9732 56.3894 51.8912 57.1302 53.1474C57.8711 54.4036 58.2415 56.006 58.2415 57.9548C58.2415 59.6781 57.9113 61.1758 57.251 62.4482C56.6068 63.7205 55.6485 64.7029 54.3762 65.3954C53.1039 66.0879 51.5417 66.4342 49.6896 66.4342H44.085V49.5237ZM49.4239 64.574C50.8089 64.574 51.9846 64.3486 52.9509 63.8976C53.9172 63.4467 54.6581 62.73 55.1734 61.7476C55.6888 60.7652 55.9465 59.5009 55.9465 57.9548C55.9465 55.7967 55.407 54.162 54.3279 53.0507C53.2489 51.9234 51.582 51.3597 49.3272 51.3597H46.2833V64.574H49.4239Z" fill="#47423D"/>
<path d="M33.2548 66.7966C31.6443 66.7966 30.227 66.4182 29.003 65.6612C27.7951 64.9043 26.861 63.8655 26.2007 62.5448C25.5565 61.2081 25.2344 59.7184 25.2344 58.0756C25.2344 56.2074 25.6048 54.5969 26.3456 53.244C27.0865 51.8912 28.077 50.8685 29.3171 50.176C30.5733 49.4835 31.9503 49.1372 33.4481 49.1372C34.6721 49.1372 35.7833 49.3627 36.7819 49.8136C37.7965 50.2646 38.6098 50.8927 39.2218 51.6979C39.8499 52.4871 40.2284 53.397 40.3572 54.4278H38.0139C37.8367 53.4132 37.3294 52.5918 36.492 51.9637C35.6545 51.3195 34.6398 50.9974 33.4481 50.9974C32.3046 50.9974 31.29 51.2712 30.4042 51.8187C29.5184 52.3502 28.8178 53.1474 28.3024 54.2104C27.8032 55.2733 27.5535 56.5617 27.5535 58.0756C27.5535 59.3802 27.7951 60.5558 28.2783 61.6027C28.7614 62.6495 29.4378 63.4709 30.3075 64.0668C31.1933 64.6627 32.1999 64.9606 33.3273 64.9606C34.3741 64.9606 35.276 64.7674 36.033 64.3808C36.7899 63.9782 37.3777 63.3904 37.7965 62.6173C38.2152 61.8443 38.4246 60.894 38.4246 59.7667V58.4863L39.3909 59.4526H33.1098V57.5925H40.4297V66.4343H38.6179V65.6854C38.6179 65.331 38.6179 65.0653 38.6179 64.8882C38.6179 64.711 38.6179 64.4453 38.6179 64.0909C38.1508 64.8801 37.4261 65.5324 36.4436 66.0477C35.4773 66.547 34.4144 66.7966 33.2548 66.7966Z" fill="#47423D"/>
</g>
<defs>
<clipPath id="clip0_139_3614">
<rect width="114.75" height="114.75" fill="white"/>
</clipPath>
</defs>
</svg>
