<svg width="80" height="25" viewBox="0 0 80 25" fill="none" xmlns="http://www.w3.org/2000/svg">
<path d="M4.95673 11.0875V9.02658H10.2787V11.0875H4.95673ZM7.90468 14.3485V9.10485H10.2787V14.3485H7.90468ZM0 14.3485V4.87859H2.37401V14.3485H0ZM0 4.87859C0 3.92202 0.2174 3.07851 0.652201 2.34805C1.087 1.60019 1.69572 1.02625 2.47836 0.626235C3.26101 0.208826 4.15669 0.00012207 5.16543 0.00012207V2.06108C4.29583 2.06108 3.60885 2.30457 3.10448 2.79154C2.6175 3.27852 2.37401 3.9742 2.37401 4.87859H0ZM0 14.3225H2.37401C2.37401 15.2268 2.6175 15.9312 3.10448 16.4356C3.60885 16.9226 4.29583 17.1661 5.16543 17.1661V19.227C4.15669 19.227 3.26101 19.0183 2.47836 18.6009C1.69572 18.1835 1.087 17.6096 0.652201 16.8791C0.2174 16.1486 0 15.2964 0 14.3225ZM8.26991 5.55688C8.16556 4.46118 7.83511 3.60897 7.27856 3.00025C6.73941 2.37413 6.02634 2.06108 5.13934 2.06108V0.00012207C6.61767 0.00012207 7.81772 0.452315 8.73949 1.3567C9.67866 2.26109 10.2439 3.51331 10.4352 5.11338L8.26991 5.55688ZM10.2787 14.3225C10.2787 15.2964 10.0613 16.1486 9.62649 16.8791C9.19169 17.6096 8.58297 18.1835 7.80032 18.6009C7.03508 19.0183 6.14808 19.227 5.13934 19.227V17.1661C6.00895 17.1661 6.68723 16.9226 7.17421 16.4356C7.66119 15.9312 7.90468 15.2268 7.90468 14.3225H10.2787Z" fill="#1A1A1A"/>
<path d="M11.9557 2.47849V0.41753H22.7822V2.47849H11.9557ZM16.1819 18.8096V0.41753H18.5559V18.8096H16.1819Z" fill="#1A1A1A"/>
<path d="M30.3498 18.8096L34.4456 0.41753H36.5065L32.4368 18.8096H30.3498ZM30.2715 18.8096L26.1757 0.41753H28.2627L32.3325 18.8096H30.2715ZM24.8713 18.8096V0.41753H27.2453V18.8096H24.8713ZM35.463 18.8096V0.41753H37.837V18.8096H35.463Z" fill="#1A1A1A"/>
<path d="M53.6898 14.3225V4.87859H56.0638V14.3225H53.6898ZM45.759 14.3225V4.87859H48.133V14.3225H45.759ZM56.0638 4.90467H53.6898C53.6898 4.00029 53.4376 3.30461 52.9332 2.81763C52.4463 2.33065 51.768 2.08717 50.8984 2.08717V0.0262098C51.9245 0.0262098 52.8202 0.234914 53.5854 0.652323C54.3681 1.05234 54.9768 1.62628 55.4116 2.37413C55.8464 3.1046 56.0638 3.94811 56.0638 4.90467ZM45.759 4.90467C45.759 3.94811 45.9764 3.1046 46.4112 2.37413C46.846 1.62628 47.4548 1.05234 48.2374 0.652323C49.02 0.234914 49.9157 0.0262098 50.9245 0.0262098V2.08717C50.0549 2.08717 49.3679 2.33065 48.8635 2.81763C48.3765 3.30461 48.133 4.00029 48.133 4.90467H45.759ZM56.0638 14.2964C56.0638 15.2703 55.8464 16.1225 55.4116 16.853C54.9768 17.5835 54.3681 18.1574 53.5854 18.5748C52.8202 18.9922 51.9245 19.2009 50.8984 19.2009V17.14C51.768 17.14 52.4463 16.8965 52.9332 16.4095C53.4376 15.9051 53.6898 15.2008 53.6898 14.2964H56.0638ZM45.759 14.2964H48.133C48.133 15.2008 48.3765 15.9051 48.8635 16.4095C49.3679 16.8965 50.0549 17.14 50.9245 17.14V19.2009C49.9157 19.2009 49.02 18.9922 48.2374 18.5748C47.4548 18.1574 46.846 17.5835 46.4112 16.853C45.9764 16.1225 45.759 15.2703 45.759 14.2964Z" fill="#1A1A1A"/>
<path d="M59.0609 18.7835H61.4349V24.0272H59.0609V18.7835ZM61.4349 5.63514V18.8096H59.0609V5.63514H61.4349ZM68.7656 9.83531V14.6094H66.3916V9.83531H68.7656ZM66.3916 14.6094H68.7656C68.7656 15.479 68.583 16.2617 68.2178 16.9574C67.8526 17.653 67.3482 18.2009 66.7047 18.6009C66.0786 19.0009 65.3655 19.2009 64.5655 19.2009L63.9654 17.0878C64.6785 17.0878 65.2611 16.8617 65.7133 16.4095C66.1655 15.9399 66.3916 15.3399 66.3916 14.6094ZM60.3914 14.5312H61.4349C61.4349 15.2964 61.6697 15.9138 62.1393 16.3834C62.6089 16.853 63.2176 17.0878 63.9654 17.0878L64.5655 19.2009C63.7654 19.2009 63.0523 19.0009 62.4262 18.6009C61.8001 18.1835 61.3045 17.6269 60.9392 16.9313C60.574 16.2182 60.3914 15.4182 60.3914 14.5312ZM66.3916 9.83531C66.3916 9.10485 66.1655 8.51352 65.7133 8.06133C65.2611 7.59174 64.6785 7.35695 63.9654 7.35695L64.5655 5.24382C65.3655 5.24382 66.0786 5.44383 66.7047 5.84384C67.3482 6.24386 67.8526 6.79171 68.2178 7.48739C68.583 8.18307 68.7656 8.96571 68.7656 9.83531H66.3916ZM60.3914 9.88749C60.3914 9.0005 60.574 8.20916 60.9392 7.51348C61.3045 6.80041 61.8001 6.24386 62.4262 5.84384C63.0523 5.44383 63.7654 5.24382 64.5655 5.24382L63.9654 7.35695C63.2176 7.35695 62.6089 7.59174 62.1393 8.06133C61.6697 8.53091 61.4349 9.13963 61.4349 9.88749H60.3914Z" fill="#1A1A1A"/>
<path d="M77.6521 15.4182C77.6521 14.9834 77.4955 14.6268 77.1825 14.3485C76.8694 14.0529 76.4607 13.792 75.9564 13.5659C75.4694 13.3224 74.9476 13.0789 74.3911 12.8354C73.8519 12.592 73.3302 12.3137 72.8258 12.0006C72.3388 11.6702 71.9388 11.2615 71.6257 10.7745C71.3127 10.2701 71.1562 9.66139 71.1562 8.94832C71.1562 8.94832 71.2257 8.94832 71.3649 8.94832C71.5214 8.94832 71.7127 8.94832 71.9388 8.94832C72.1823 8.94832 72.4171 8.94832 72.6432 8.94832C72.8693 8.94832 73.0606 8.94832 73.2171 8.94832C73.3736 8.94832 73.4519 8.94832 73.4519 8.94832C73.4519 9.38312 73.6084 9.74835 73.9215 10.044C74.2345 10.3223 74.6346 10.5745 75.1215 10.8006C75.6259 11.0267 76.1564 11.2702 76.7129 11.531C77.2694 11.7745 77.7912 12.0615 78.2782 12.3919C78.7652 12.7224 79.1652 13.1311 79.4782 13.6181C79.8087 14.0877 79.9739 14.6877 79.9739 15.4182C79.9739 15.4182 79.8956 15.4182 79.7391 15.4182C79.5826 15.4182 79.3826 15.4182 79.1391 15.4182C78.913 15.4182 78.6869 15.4182 78.4608 15.4182C78.2347 15.4182 78.0434 15.4182 77.8869 15.4182C77.7303 15.4182 77.6521 15.4182 77.6521 15.4182ZM75.4346 19.2009V17.14C76.0781 17.14 76.6086 16.9834 77.026 16.6704C77.4434 16.3399 77.6521 15.9225 77.6521 15.4182H79.9739C79.9739 16.1486 79.7739 16.8008 79.3739 17.3748C78.9913 17.9487 78.4608 18.4009 77.7825 18.7313C77.1042 19.0444 76.3216 19.2009 75.4346 19.2009ZM71.1562 8.94832C71.1562 8.23525 71.3301 7.60044 71.6779 7.04389C72.0431 6.46996 72.5475 6.02646 73.191 5.7134C73.8345 5.38295 74.5476 5.21773 75.3302 5.21773V7.27869C74.7911 7.27869 74.3389 7.43521 73.9737 7.74827C73.6258 8.06133 73.4519 8.46134 73.4519 8.94832H71.1562ZM72.9562 14.8703C73.0432 15.6356 73.3215 16.2095 73.791 16.5921C74.2606 16.9574 74.8085 17.14 75.4346 17.14V19.2009C74.6346 19.2009 73.8954 19.0357 73.2171 18.7052C72.5388 18.3748 71.9823 17.9139 71.5475 17.3226C71.1301 16.7313 70.8692 16.0617 70.7648 15.3138L72.9562 14.8703ZM77.7825 9.54835C77.6955 8.76571 77.4173 8.19177 76.9477 7.82653C76.4955 7.4613 75.9564 7.27869 75.3302 7.27869V5.21773C76.1477 5.21773 76.8868 5.38295 77.5477 5.7134C78.2086 6.04385 78.7565 6.50474 79.1913 7.09607C79.6261 7.67001 79.8956 8.3396 80 9.10485L77.7825 9.54835Z" fill="#1A1A1A"/>
</svg>
