<svg width="33" height="32" viewBox="0 0 33 32" fill="none" xmlns="http://www.w3.org/2000/svg">
<g clip-path="url(#clip0_4497_106407)">
<path d="M28.9483 0H4.05173C2.09016 0 0.5 1.59016 0.5 3.55173V28.4483C0.5 30.4098 2.09016 32 4.05173 32H28.9483C30.9098 32 32.5 30.4098 32.5 28.4483V3.55173C32.5 1.59016 30.9098 0 28.9483 0Z" fill="#1A1A1A"/>
<path d="M25.0317 20.4567L18.3687 8.92049C17.5359 7.48191 15.4572 7.48191 14.6243 8.92049L7.96135 20.4567C7.12848 21.8953 8.16785 23.6987 9.83358 23.6987H23.1526C24.8183 23.6987 25.8577 21.8953 25.0248 20.4567H25.0317ZM23.2421 22.2533L16.4965 20.2502L9.75098 22.2533C9.17279 22.4253 8.75292 21.7095 9.17968 21.2896L14.404 16.0997L15.9321 9.69141C16.0698 9.09946 16.9164 9.09946 17.0541 9.69141L18.5821 16.0997L23.8065 21.2896C24.2332 21.7164 23.8065 22.4253 23.2352 22.2533H23.2421Z" fill="white"/>
</g>
<defs>
<clipPath id="clip0_4497_106407">
<rect width="32" height="32" fill="white" transform="translate(0.5)"/>
</clipPath>
</defs>
</svg>
