<svg width="115" height="115" viewBox="0 0 115 115" fill="none" xmlns="http://www.w3.org/2000/svg">
<g clip-path="url(#clip0_139_3720)">
<path d="M96.4492 67.6499C95.0964 67.6499 93.9046 67.4164 92.8739 66.9493C91.8431 66.4823 91.0459 65.8139 90.4822 64.9442C89.9185 64.0584 89.6287 63.0277 89.6125 61.852H91.8592C91.9075 62.6573 92.125 63.3578 92.5115 63.9537C92.9141 64.5496 93.4536 65.0086 94.1301 65.3307C94.8065 65.6529 95.5876 65.8139 96.4734 65.8139C97.8423 65.8139 98.8972 65.5401 99.6381 64.9925C100.395 64.4288 100.773 63.68 100.773 62.7458C100.773 61.9889 100.484 61.4011 99.9038 60.9823C99.3401 60.5475 98.5107 60.2012 97.4155 59.9435L94.9031 59.3637C93.502 59.0416 92.3665 58.4941 91.4969 57.721C90.6272 56.9318 90.1923 55.9253 90.1923 54.7013C90.1923 53.7994 90.4581 52.9941 90.9895 52.2855C91.521 51.5607 92.2538 50.9971 93.1879 50.5944C94.1381 50.1918 95.2011 49.9905 96.3768 49.9905C97.5847 49.9905 98.6476 50.1998 99.5656 50.6186C100.5 51.0373 101.232 51.6332 101.764 52.4063C102.295 53.1793 102.593 54.0812 102.658 55.112H100.411C100.363 54.4516 100.161 53.8799 99.8072 53.3967C99.469 52.8975 99.0019 52.519 98.406 52.2613C97.8101 51.9875 97.1176 51.8506 96.3284 51.8506C95.6037 51.8506 94.9514 51.9634 94.3717 52.1888C93.7919 52.4143 93.3329 52.7284 92.9947 53.131C92.6725 53.5336 92.5115 53.9926 92.5115 54.508C92.5115 55.2327 92.7531 55.8206 93.2362 56.2715C93.7194 56.7225 94.4602 57.0607 95.4588 57.2862L98.4543 57.9626C99.8877 58.3008 101.015 58.8564 101.836 59.6295C102.674 60.3864 103.093 61.3769 103.093 62.6009C103.093 63.535 102.819 64.3886 102.271 65.1616C101.74 65.9186 100.975 66.5225 99.9763 66.9735C98.9778 67.4244 97.8021 67.6499 96.4492 67.6499Z" fill="#47423D"/>
<path d="M81.0674 67.6499C79.7146 67.6499 78.5228 67.4164 77.492 66.9493C76.4613 66.4823 75.6641 65.8139 75.1004 64.9442C74.5367 64.0584 74.2468 63.0277 74.2307 61.852H76.4774C76.5257 62.6573 76.7431 63.3578 77.1297 63.9537C77.5323 64.5496 78.0718 65.0086 78.7482 65.3307C79.4247 65.6529 80.2058 65.8139 81.0916 65.8139C82.4605 65.8139 83.5154 65.5401 84.2562 64.9925C85.0132 64.4288 85.3917 63.68 85.3917 62.7458C85.3917 61.9889 85.1018 61.4011 84.522 60.9823C83.9583 60.5475 83.1289 60.2012 82.0337 59.9435L79.5213 59.3637C78.1201 59.0416 76.9847 58.4941 76.115 57.721C75.2453 56.9318 74.8105 55.9253 74.8105 54.7013C74.8105 53.7994 75.0762 52.9941 75.6077 52.2855C76.1392 51.5607 76.872 50.9971 77.8061 50.5944C78.7563 50.1918 79.8192 49.9905 80.9949 49.9905C82.2028 49.9905 83.2658 50.1998 84.1838 50.6186C85.1179 51.0373 85.8506 51.6332 86.3821 52.4063C86.9136 53.1793 87.2115 54.0812 87.276 55.112H85.0293C84.981 54.4516 84.7797 53.8799 84.4253 53.3967C84.0871 52.8975 83.6201 52.519 83.0242 52.2613C82.4283 51.9875 81.7358 51.8506 80.9466 51.8506C80.2219 51.8506 79.5696 51.9634 78.9898 52.1888C78.41 52.4143 77.951 52.7284 77.6128 53.131C77.2907 53.5336 77.1297 53.9926 77.1297 54.508C77.1297 55.2327 77.3712 55.8206 77.8544 56.2715C78.3375 56.7225 79.0784 57.0607 80.0769 57.2862L83.0725 57.9626C84.5059 58.3008 85.6332 58.8564 86.4546 59.6295C87.2921 60.3864 87.7108 61.3769 87.7108 62.6009C87.7108 63.535 87.437 64.3886 86.8894 65.1616C86.358 65.9186 85.593 66.5225 84.5944 66.9735C83.5959 67.4244 82.4202 67.6499 81.0674 67.6499Z" fill="#47423D"/>
<path d="M58.0292 50.377H63.1023C64.9866 50.377 66.5972 50.6668 67.9339 51.2466C69.2867 51.8264 70.3336 52.7444 71.0744 54.0006C71.8153 55.2568 72.1857 56.8593 72.1857 58.8081C72.1857 60.5313 71.8555 62.0291 71.1952 63.3014C70.551 64.5737 69.5927 65.5562 68.3204 66.2487C67.0481 66.9412 65.4859 67.2875 63.6338 67.2875H58.0292V50.377ZM63.3681 65.4273C64.7531 65.4273 65.9288 65.2018 66.8951 64.7509C67.8614 64.3 68.6023 63.5833 69.1176 62.6008C69.633 61.6184 69.8907 60.3542 69.8907 58.8081C69.8907 56.65 69.3512 55.0153 68.2721 53.904C67.1931 52.7766 65.5262 52.213 63.2714 52.213H60.2275V65.4273H63.3681Z" fill="#47423D"/>
<path d="M45.7378 50.377H47.9362V67.2875H45.7378V50.377ZM45.7378 65.4273H47.9362V67.2875H45.7378V65.4273ZM45.7378 50.377H47.9362V52.213H45.7378V50.377Z" fill="#47423D"/>
<path d="M35.3812 67.6499C33.7707 67.6499 32.3534 67.2956 31.1294 66.587C29.9215 65.8622 28.9794 64.8315 28.303 63.4947C27.6265 62.1419 27.2883 60.5555 27.2883 58.7356C27.2883 57.0124 27.6346 55.4904 28.3271 54.1698C29.0358 52.8331 30.0101 51.8023 31.2502 51.0776C32.4903 50.3528 33.8834 49.9905 35.4295 49.9905C36.7663 49.9905 37.9581 50.2482 39.0049 50.7635C40.0518 51.2628 40.8892 51.9553 41.5173 52.8411C42.1454 53.7269 42.5159 54.7254 42.6286 55.8367H40.2128C39.9873 54.5805 39.4559 53.6061 38.6184 52.9136C37.7809 52.205 36.6858 51.8506 35.3329 51.8506C34.1894 51.8506 33.1829 52.1325 32.3132 52.6962C31.4596 53.2437 30.7912 54.041 30.3081 55.0878C29.841 56.1185 29.6075 57.3345 29.6075 58.7356C29.6075 60.1368 29.8491 61.3769 30.3322 62.456C30.8154 63.5189 31.4918 64.3403 32.3615 64.9201C33.2312 65.4998 34.2216 65.7897 35.3329 65.7897C36.7019 65.7897 37.8212 65.4354 38.6909 64.7268C39.5605 64.0182 40.1162 63.0518 40.3578 61.8278H42.6528C42.5078 63.0196 42.1132 64.0584 41.469 64.9442C40.8248 65.8139 39.9793 66.4823 38.9324 66.9493C37.8856 67.4164 36.7019 67.6499 35.3812 67.6499Z" fill="#47423D"/>
<path d="M13.1105 50.377H19.7056C20.7846 50.377 21.7509 50.53 22.6045 50.836C23.4742 51.1258 24.1748 51.6332 24.7063 52.3579C25.2377 53.0665 25.5035 54.0087 25.5035 55.1844C25.5035 56.3601 25.2458 57.3022 24.7304 58.0108C24.2151 58.7195 23.5225 59.2268 22.6528 59.5328C21.7993 59.8227 20.8168 59.9676 19.7056 59.9676H15.3088V67.2875H13.1105V50.377ZM19.6814 58.1316C20.9215 58.1316 21.8234 57.874 22.3871 57.3586C22.9669 56.8432 23.2568 56.1185 23.2568 55.1844C23.2568 54.2342 22.9669 53.5014 22.3871 52.986C21.8234 52.4706 20.9215 52.213 19.6814 52.213H15.3088V58.1316H19.6814Z" fill="#47423D"/>
<path d="M49.8965 109.978L48.9856 110.889L3.86023 65.7641L4.77119 64.8532L49.8965 109.978ZM64.8535 109.978L109.979 64.8532C114.108 60.7232 114.108 54.0271 109.978 49.8973L64.8524 4.77194C60.7226 0.642563 54.0274 0.64256 49.8976 4.77194L4.77227 49.8973C0.642465 54.0271 0.641672 60.7232 4.77119 64.8532L3.86023 65.7641C-0.77294 61.1305 -0.773224 53.6187 3.86023 48.9852L48.9856 3.8599C53.619 -0.773129 61.1309 -0.773125 65.7644 3.8599L110.89 48.9852C115.523 53.6187 115.523 61.1305 110.89 65.7641L65.7644 110.889C61.1308 115.523 53.6192 115.523 48.9856 110.889L49.8965 109.978C54.0265 114.108 60.7235 114.108 64.8535 109.978Z" fill="#47423D"/>
</g>
<defs>
<clipPath id="clip0_139_3720">
<rect width="114.75" height="114.75" fill="white"/>
</clipPath>
</defs>
</svg>
