<svg width="33" height="32" viewBox="0 0 33 32" fill="none" xmlns="http://www.w3.org/2000/svg">
<g clip-path="url(#clip0_4497_106386)">
<path d="M28.9483 0H4.05173C2.09016 0 0.5 1.59016 0.5 3.55173V28.4483C0.5 30.4098 2.09016 32 4.05173 32H28.9483C30.9098 32 32.5 30.4098 32.5 28.4483V3.55173C32.5 1.59016 30.9098 0 28.9483 0Z" fill="#1A1A1A"/>
<path d="M13.4539 12.8577H8.78711V15.7624H14.6791C15.8217 15.7624 16.7441 16.6848 16.7441 17.8274V23.6919H19.6488V19.0526C19.6488 15.6316 16.8749 12.8508 13.447 12.8508L13.4539 12.8577Z" fill="white"/>
<path d="M8.84217 17.4695H8.78711V20.3742H10.0674C11.21 20.3742 12.1323 21.2966 12.1323 22.4392V23.6919H15.0371V23.6644C15.0371 20.2435 12.2631 17.4626 8.83529 17.4626L8.84217 17.4695Z" fill="white"/>
<path d="M19.2359 11.2126C20.3785 11.2126 21.3008 12.135 21.3008 13.2776V23.6987H24.2055V14.5028C24.2055 11.0818 21.4316 8.30103 18.0038 8.30103H8.78027V11.2057H19.229L19.2359 11.2126Z" fill="white"/>
<path d="M13.4539 12.8577H8.78711V15.7624H14.6791C15.8217 15.7624 16.7441 16.6848 16.7441 17.8274V23.6919H19.6488V19.0526C19.6488 15.6316 16.8749 12.8508 13.447 12.8508L13.4539 12.8577Z" fill="white"/>
<path d="M8.84217 17.4695H8.78711V20.3742H10.0674C11.21 20.3742 12.1323 21.2966 12.1323 22.4392V23.6919H15.0371V23.6644C15.0371 20.2435 12.2631 17.4626 8.83529 17.4626L8.84217 17.4695Z" fill="white"/>
</g>
<defs>
<clipPath id="clip0_4497_106386">
<rect width="32" height="32" fill="white" transform="translate(0.5)"/>
</clipPath>
</defs>
</svg>
